<svg version="1.1" xmlns="http://www.w3.org/2000/svg" width="128px" height="128px" transform="rotate(0) scale(1, 1)">
<path d="M0 0 C11.02118723 11.61372418 15.23249996 25.06246621 15.25 40.8125 C14.38205054 53.50034296 9.67818532 64.36050042 1.25 73.8125 C0.72792969 74.42738281 0.20585938 75.04226562 -0.33203125 75.67578125 C-10.32940861 86.64613937 -23.80624744 91.07469549 -38.234375 91.80859375 C-52.19617401 91.82410686 -64.36329668 87.07414455 -74.75 77.8125 C-75.36488281 77.29042969 -75.97976562 76.76835938 -76.61328125 76.23046875 C-87.58363937 66.23309139 -92.01219549 52.75625256 -92.74609375 38.328125 C-92.76160686 24.36632599 -88.01164455 12.19920332 -78.75 1.8125 C-77.96689453 0.89017578 -77.96689453 0.89017578 -77.16796875 -0.05078125 C-68.75883267 -9.27832473 -56.44656735 -14.9476035 -44.0625 -16.12109375 C-26.84433112 -16.61553441 -12.65135826 -11.81649705 0 0 Z M-73.89453125 8.47265625 C-82.52938771 19.36166471 -85.0845157 32.24047538 -83.75 45.8125 C-81.28873029 57.95103473 -74.45363797 68.20625662 -64.46875 75.47265625 C-53.22966466 82.71048494 -40.59349546 84.86952325 -27.44140625 82.12109375 C-14.56704569 78.20138397 -4.62937847 70.16920402 1.9609375 58.46875 C7.26450293 47.54019093 7.8760612 35.65757091 4.625 24 C0.59573423 12.39120632 -6.83859418 3.09570612 -17.8125 -2.5625 C-37.74412054 -12.1403794 -58.84967404 -7.17279406 -73.89453125 8.47265625 Z " fill="#ffffff" transform="translate(102.75,26.1875)"/>
<path d="M0 0 C3.45628164 3.35753074 4.77988867 6.12521333 5.28515625 10.9296875 C5.07145524 15.73368616 2.59169655 19.62396231 -0.625 23.0625 C-5.1996341 25.28446513 -9.20891156 25.57026362 -14 24 C-17.71792616 22.39322184 -19.80391054 20.74046103 -21.8125 17.125 C-23.26023642 11.14102279 -23.064342 7.57970271 -19.8125 2.125 C-13.50926323 -2.97123398 -7.21922174 -4.81281449 0 0 Z " fill="#ffffff" transform="translate(72.8125,52.875)"/>
</svg>