<svg version="1.1" xmlns="http://www.w3.org/2000/svg" width="128px" height="128px" transform="rotate(0) scale(1, 1)">
<path d="M0 0 C6.46437648 5.79415684 9.95685212 11.33219389 11 20 C11.06578002 22.45754141 11.08569162 24.91668778 11.0625 27.375 C11.05347656 28.62023438 11.04445313 29.86546875 11.03515625 31.1484375 C11.02355469 32.08945312 11.01195313 33.03046875 11 34 C11.73605469 33.95359375 12.47210938 33.9071875 13.23046875 33.859375 C21.27001244 33.56200747 21.27001244 33.56200747 25.125 35.875 C28.16996629 39.32596179 28.13638506 41.39372073 28.17700195 45.9309082 C28.19625481 47.79843498 28.19625481 47.79843498 28.21589661 49.70368958 C28.22406428 51.06938276 28.23150796 52.43508044 28.23828125 53.80078125 C28.24235678 54.48775778 28.2464323 55.17473431 28.25063133 55.88252831 C28.27149176 59.51925735 28.28579304 63.15594867 28.29516602 66.79272461 C28.30622525 70.54556008 28.34061858 74.29780174 28.38033772 78.05042744 C28.40650911 80.93897082 28.41485829 83.82737289 28.41844749 86.7160244 C28.42331289 88.09910272 28.43492574 89.48217475 28.45348549 90.8651371 C28.47788099 92.80358175 28.47449171 94.74231532 28.4699707 96.6809082 C28.47583694 97.78296097 28.48170319 98.88501373 28.48774719 100.02046204 C27.88285414 103.71561773 26.62002307 105.36852874 24 108 C20.52620879 109.1579304 17.79529683 109.14122491 14.12939453 109.16113281 C13.43473083 109.16609772 12.74006714 109.17106262 12.02435303 109.17617798 C9.72716276 109.19077829 7.43004154 109.19759784 5.1328125 109.203125 C3.53482054 109.20887799 1.9368286 109.21463571 0.33883667 109.22039795 C-3.01190512 109.23090172 -6.36262297 109.23674854 -9.71337891 109.24023438 C-14.00301716 109.24571933 -18.29233804 109.2697498 -22.58187675 109.29820633 C-25.88303549 109.31684645 -29.18411795 109.32203902 -32.48532486 109.32357025 C-34.06654725 109.32659397 -35.64776839 109.33461304 -37.22893906 109.34775543 C-39.44307238 109.36484597 -41.65643261 109.36292884 -43.87060547 109.35644531 C-45.12952606 109.36009094 -46.38844666 109.36373657 -47.68551636 109.36749268 C-51.29393317 108.96741022 -53.13424518 108.18963492 -56 106 C-58.3290006 102.50649911 -58.26183206 101.08636071 -58.29052734 96.95556641 C-58.30328705 95.71062408 -58.31604675 94.46568176 -58.32919312 93.18301392 C-58.33225077 91.82253169 -58.33447853 90.46204738 -58.3359375 89.1015625 C-58.34236532 87.70535139 -58.34909367 86.30914163 -58.35610962 84.91293335 C-58.36808471 81.98586912 -58.37179026 79.05892293 -58.37060547 76.13183594 C-58.37040236 72.38683092 -58.39769372 68.64258549 -58.43214989 64.89776039 C-58.45442388 62.01348416 -58.45844286 59.12939051 -58.45738602 56.24503708 C-58.45974165 54.86476399 -58.46856324 53.48448584 -58.48405075 52.10429764 C-58.50371494 50.17070587 -58.49534905 48.23689103 -58.48583984 46.30322266 C-58.48868988 45.2041861 -58.49153992 44.10514954 -58.49447632 42.97280884 C-57.88484757 39.30769958 -56.55572996 37.64591423 -54 35 C-51.35541621 33.67770811 -49.32238699 33.90322806 -46.375 33.9375 C-44.87066406 33.95103516 -44.87066406 33.95103516 -43.3359375 33.96484375 C-42.56507812 33.97644531 -41.79421875 33.98804688 -41 34 C-41.03480469 33.03320312 -41.06960937 32.06640625 -41.10546875 31.0703125 C-41.31932969 20.78461987 -41.11263429 12.43183378 -34.4375 4.125 C-25.1049346 -5.51466993 -11.42616773 -6.99713203 0 0 Z M-29.875 12.1875 C-33.14447592 18.71510508 -33.14447592 18.71510508 -32 34 C-20.78 34 -9.56 34 2 34 C3.19607237 20.81085608 3.19607237 20.81085608 -1.53515625 10.44921875 C-5.90222298 6.12873406 -8.86225016 4.74277873 -15 4.5 C-21.85483579 4.77114307 -25.58266391 6.89639318 -29.875 12.1875 Z M-49 43 C-49 61.81 -49 80.62 -49 100 C-26.56 100 -4.12 100 19 100 C19 81.19 19 62.38 19 43 C-3.44 43 -25.88 43 -49 43 Z " fill="#ffffff" transform="translate(79,9)"/>
<path d="M0 0 C3.67552256 1.99756661 4.77375004 3.50036467 6.5 7.3125 C7.12392742 11.91396471 6.36380554 14.03490684 4 18 C1.62500132 20.23529288 0.06742425 20.93889521 -3.18359375 21.125 C-7.28695493 20.90938825 -9.38893324 20.54996009 -12.5 17.75 C-14.05435838 14.90034297 -14.92279919 13.24243407 -15 10 C-13.85727877 6.51169309 -12.73075059 3.83900994 -10.3125 1.0625 C-6.87579652 -0.51652592 -3.66625017 -0.64141156 0 0 Z " fill="#ffffff" transform="translate(68,70)"/>
</svg>