<svg version="1.1" xmlns="http://www.w3.org/2000/svg" width="128px" height="128px" transform="rotate(0) scale(1, 1)">
<path d="M0 0 C1.29077202 0.00045319 1.29077202 0.00045319 2.60762024 0.00091553 C3.52238632 0.02156067 4.4371524 0.04220581 5.37963867 0.06347656 C6.80067146 0.07196625 6.80067146 0.07196625 8.25041199 0.08062744 C11.26666477 0.10296072 14.28171564 0.15315176 17.29760742 0.20410156 C19.34641835 0.22417049 21.39524796 0.24242057 23.4440918 0.25878906 C28.45822451 0.30281562 33.47146241 0.37182247 38.48510742 0.45410156 C38.48510742 3.09410156 38.48510742 5.73410156 38.48510742 8.45410156 C25.28510742 8.45410156 12.08510742 8.45410156 -1.51489258 8.45410156 C-1.51489258 34.85410156 -1.51489258 61.25410156 -1.51489258 88.45410156 C11.68510742 88.45410156 24.88510742 88.45410156 38.48510742 88.45410156 C38.48510742 91.09410156 38.48510742 93.73410156 38.48510742 96.45410156 C32.292121 96.55298246 26.0995941 96.62557642 19.90600586 96.67382812 C17.7991536 96.69394282 15.69235717 96.72123823 13.58569336 96.75585938 C10.55723295 96.80438325 7.52951064 96.82707173 4.50073242 96.84472656 C3.0880307 96.87569427 3.0880307 96.87569427 1.64678955 96.9072876 C0.76617859 96.90758972 -0.11443237 96.90789185 -1.02172852 96.90820312 C-1.79450134 96.91708557 -2.56727417 96.92596802 -3.36346436 96.93511963 C-6.56868938 96.21849282 -7.63064654 95.14299889 -9.51489258 92.45410156 C-9.91457637 89.50699501 -10.0723139 86.93238442 -10.04833984 83.98535156 C-10.05695541 83.13287842 -10.06557098 82.28040527 -10.07444763 81.40209961 C-10.0971404 78.58579094 -10.09036321 75.77047457 -10.08129883 72.95410156 C-10.08653271 70.99641625 -10.09280832 69.03873348 -10.1000824 67.08105469 C-10.11049253 62.97872041 -10.10591594 58.87673287 -10.09130859 54.77441406 C-10.07411424 49.51477289 -10.09762091 44.25622345 -10.13279819 38.9967041 C-10.15474725 34.95435331 -10.15333686 30.91226479 -10.14503288 26.86987305 C-10.1442121 24.9305705 -10.15109963 22.99124893 -10.16580391 21.05200195 C-10.1832053 18.3416001 -10.16874541 15.63317353 -10.14599609 12.92285156 C-10.15768829 12.12065186 -10.16938049 11.31845215 -10.181427 10.49194336 C-10.11599141 6.66444296 -9.86084711 4.83739894 -7.25762939 1.95318604 C-4.49971744 0.44580736 -3.09364869 -0.03650323 0 0 Z " fill="#ffffff" transform="translate(25.514892578125,15.5458984375)"/>
<path d="M0 0 C5.62303757 4.67466337 10.79741554 9.67765667 15.9375 14.875 C16.71673828 15.65875 17.49597656 16.4425 18.29882812 17.25 C20.20154085 19.16438581 22.10186171 21.08108034 24 23 C22.4608199 26.66752005 20.24514548 28.98580573 17.4296875 31.765625 C16.53378906 32.65507813 15.63789062 33.54453125 14.71484375 34.4609375 C13.77769531 35.38132813 12.84054688 36.30171875 11.875 37.25 C10.92011363 38.19484856 9.96568141 39.14015633 9.01171875 40.0859375 C6.67890913 42.39518338 4.34155914 44.69963203 2 47 C-0.49361571 45.79618552 -2.68143083 44.54571278 -5 43 C-3 39 -3 39 7 29 C-16.265 28.505 -16.265 28.505 -40 28 C-40 25.36 -40 22.72 -40 20 C-17.23 19.505 -17.23 19.505 6 19 C2.37 15.37 -1.26 11.74 -5 8 C-3.95206337 3.80825346 -3.08236365 2.78407039 0 0 Z " fill="#ffffff" transform="translate(88,40)"/>
</svg>