<svg version="1.1" xmlns="http://www.w3.org/2000/svg" width="128px" height="128px" transform="rotate(0) scale(1, 1)">
<path d="M0 0 C2.14453125 1.90234375 2.14453125 1.90234375 4.14453125 4.90234375 C4.47453125 -0.04765625 4.80453125 -4.99765625 5.14453125 -10.09765625 C8.11453125 -10.09765625 11.08453125 -10.09765625 14.14453125 -10.09765625 C14.14453125 1.12234375 14.14453125 12.34234375 14.14453125 23.90234375 C2.92453125 23.90234375 -8.29546875 23.90234375 -19.85546875 23.90234375 C-19.85546875 21.26234375 -19.85546875 18.62234375 -19.85546875 15.90234375 C-12.92546875 15.90234375 -5.99546875 15.90234375 1.14453125 15.90234375 C-3.52897136 9.3594401 -6.2147581 6.6292732 -12.85546875 2.90234375 C-13.4484375 2.55945312 -14.04140625 2.2165625 -14.65234375 1.86328125 C-22.00908949 -1.61977979 -32.04076403 -1.15916595 -39.83203125 0.55859375 C-49.90051152 4.17451855 -56.27040319 11.43077234 -60.85546875 20.90234375 C-63.71832075 29.05448938 -62.9417532 40.94948247 -59.2421875 48.66015625 C-54.31808795 56.62193974 -48.02048104 62.47750335 -39.06640625 65.5078125 C-29.42969949 67.22743685 -19.45547794 66.75281275 -10.85546875 61.90234375 C-10.21222656 61.55171875 -9.56898437 61.20109375 -8.90625 60.83984375 C-2.53553551 56.85987461 0.86159532 50.46821561 4.14453125 43.90234375 C7.11453125 43.90234375 10.08453125 43.90234375 13.14453125 43.90234375 C9.18072634 57.0739936 2.28543032 65.60987759 -9.79296875 72.15234375 C-20.31421031 77.05544661 -32.16687274 77.34917561 -43.1953125 73.9375 C-54.79720102 69.42281504 -63.08299875 61.68089166 -68.66796875 50.6171875 C-73.05574323 40.58592676 -73.49948638 28.6612804 -69.890625 18.3046875 C-63.8816809 4.35940213 -54.71351866 -3.38555682 -40.85546875 -9.09765625 C-26.04529654 -13.04703551 -11.88386625 -9.06514541 0 0 Z " fill="#ffffff" transform="translate(92.85546875,31.09765625)"/>
</svg>