<svg version="1.1" xmlns="http://www.w3.org/2000/svg" width="128px" height="128px" transform="rotate(0) scale(1, 1)">
<path d="M0 0 C1.98 1.65 3.96 3.3 6 5 C4.63796918 7.91215162 3.03533523 10.35904234 1.125 12.9375 C-5.56403408 22.9874458 -7.24771893 34.12120649 -6 46 C-3.33002937 58.67486059 3.53354814 68.44658859 14 76 C26.02845157 82.29134453 38.60190373 84.11619119 51.8125 80.375 C62.89721006 76.50542849 72.12072435 69.41680559 77.640625 58.86328125 C83.01421177 46.30947078 83.73509247 34.02777082 79.28125 20.984375 C77.69704615 17.2943392 75.75358394 14.1233607 73.3671875 10.90234375 C72.00522804 9.00727444 70.98709102 7.1104946 70 5 C71.98 3.35 73.96 1.7 76 0 C87.40856434 11.47607063 91.82783183 25.04001019 92 41 C91.15139492 53.68193143 86.42004076 64.55713433 78 74 C77.47792969 74.61488281 76.95585938 75.22976562 76.41796875 75.86328125 C66.42059139 86.83363937 52.94375256 91.26219549 38.515625 91.99609375 C24.55382599 92.01160686 12.38670332 87.26164455 2 78 C1.38511719 77.47792969 0.77023438 76.95585938 0.13671875 76.41796875 C-10.83363937 66.42059139 -15.26219549 52.94375256 -15.99609375 38.515625 C-16.01160752 24.55323141 -11.25982962 12.40273051 -2 2 C-1.34 1.34 -0.68 0.68 0 0 Z " fill="#ffffff" transform="translate(26,26)"/>
<path d="M0 0 C2.64 0 5.28 0 8 0 C8 19.8 8 39.6 8 60 C5.36 60 2.72 60 0 60 C0 40.2 0 20.4 0 0 Z " fill="#ffffff" transform="translate(60,10)"/>
</svg>