<svg version="1.1" xmlns="http://www.w3.org/2000/svg" width="128px" height="128px" transform="rotate(0) scale(1, 1)">
<path d="M0 0 C10.56 0 21.12 0 32 0 C32 25.08 32 50.16 32 76 C21.44 76 10.88 76 0 76 C0 50.92 0 25.84 0 0 Z M8 9 C8 28.14 8 47.28 8 67 C12.95 67 17.9 67 23 67 C23 47.86 23 28.72 23 9 C18.05 9 13.1 9 8 9 Z " fill="#ffffff" transform="translate(70,26)"/>
<path d="M0 0 C10.56 0 21.12 0 32 0 C32 25.08 32 50.16 32 76 C21.44 76 10.88 76 0 76 C0 50.92 0 25.84 0 0 Z M9 9 C9 28.14 9 47.28 9 67 C13.95 67 18.9 67 24 67 C24 47.86 24 28.72 24 9 C19.05 9 14.1 9 9 9 Z " fill="#ffffff" transform="translate(26,26)"/>
</svg>